# ProBuilder 4.4.0
# https://unity3d.com/unity/features/worldbuilding/probuilder
# 10/28/2020 2:48:51 PM

mtllib ./ComputerConsole.mtl
o ComputerConsole

g ComputerConsole
v -0.748253 0 -0.5
v 0.751747 0 -0.5
v -0.748253 2.5 -0.5
v 0.751747 2.5 -0.5
v 0.751747 0 0.5
v 0.751747 1.25 0.5
v 0.751747 2.5 0
v -0.751747 2.5 0
v -0.7482728 1.25 0.5
v -0.748253 0 0.5
v 0.001746953 0 0.5
v 0.555059 2.346096 -0.2887793
v -0.552494 1.423147 0.08040011
v -0.5550591 2.346096 -0.2887793
v 0.555059 1.423147 0.08040011
v -0.6953335 1.294218 0.4823128
v -0.6985618 2.455782 0.0176872
v 0.6985617 2.455782 0.0176872
v 0.6985617 1.294218 0.4823128

vt 0.748253 -1.25
vt -0.751747 -1.25
vt 0.748253 1.25
vt -0.751747 1.25
vt 0.5 -1.25
vt -0.5 -1.25
vt -0.5 0
vt 0.5 1.25
vt 0 1.25
vt -0.4996435 1.250558
vt 0.0003581382 1.250561
vt 0.5003564 0.000558349
vt -0.4996435 -1.249441
vt 0.5003564 -1.249441
vt 0.751747 0.5
vt 0.751747 0
vt -0.751747 0
vt -0.748253 0.5
vt 0.748253 0.5
vt -0.001746953 -0.5
vt -0.751747 0.5
vt -0.751747 -0.5
vt 0.748253 -0.5
vt 0.555059 1.124949
vt -0.552494 0.1309031
vt -0.5550591 1.124949
vt 0.555059 0.1309031
vt 0.001746953 -1.25
vt -0.7482728 0
vt 0.751747 -1.25
vt -0.748253 -1.25
vt -0.7482731 -0.1856952
vt -0.751747 1.160596
vt -0.6953337 -0.138071
vt -0.6985618 1.112972
vt 0.751747 1.160596
vt 0.6985617 1.112972
vt 0.7517472 -0.1856952
vt 0.698562 -0.138071
vt -0.7095399 0.113856
vt -0.2806755 1.289098
vt -0.2834612 0.2443032
vt 0.05730337 1.17812
vt 0.6985618 -0.42297
vt -0.6985617 -0.42297
vt 0.5550591 -0.0974661
vt -0.555059 -0.0974661
vt 0.2811525 1.288055
vt 0.7111072 0.1132164
vt -0.0568389 1.177116
vt 0.2847919 0.2436189
vt 0.6985617 -0.4457544
vt -0.6953335 -0.4457544
vt 0.555059 -0.02366854
vt -0.552494 -0.02366854

vn 0 0 -1
vn 1 0 0
vn -0.99998 -0.002787097 -0.00350366
vn -0.9999601 -0.005574194 -0.006987531
vn -0.9999866 -0.001863342 -0.002335773
vn -1 -7.915497E-06 -9.894371E-06
vn 0 1 0
vn 0 -1 0
vn 0 0.3713906 0.9284767
vn 0 0 1
vn 0.9148881 0.1521227 0.3739498
vn 0 -0.941514 0.3369741
vn -0.9149227 0.1499041 0.3747603
vn 0 0.952206 0.3054568

usemtl ProBuilderDefault
f 3/3/1 2/2/1 1/1/1
f 3/3/1 4/4/1 2/2/1
f 6/7/2 5/6/2 2/5/2
f 4/8/2 6/7/2 2/5/2
f 4/8/2 7/9/2 6/7/2
f 9/12/5 8/11/4 3/10/3
f 1/13/6 9/12/5 3/10/3
f 1/13/6 10/14/6 9/12/5
f 8/17/7 7/16/7 4/15/7
f 3/18/7 8/17/7 4/15/7
f 2/21/8 11/20/8 1/19/8
f 2/21/8 5/22/8 11/20/8
f 11/20/8 10/23/8 1/19/8
f 14/26/9 13/25/9 12/24/9
f 13/25/9 15/27/9 12/24/9
f 9/29/10 11/28/10 6/16/10
f 11/28/10 5/30/10 6/16/10
f 10/31/10 11/28/10 9/29/10
f 16/34/9 8/33/9 9/32/9
f 16/34/9 17/35/9 8/33/9
f 17/35/9 7/36/9 8/33/9
f 17/35/9 18/37/9 7/36/9
f 18/37/9 6/38/9 7/36/9
f 18/37/9 19/39/9 6/38/9
f 19/39/9 9/32/9 6/38/9
f 19/39/9 16/34/9 9/32/9
f 13/42/11 17/41/11 16/40/11
f 13/42/11 14/43/11 17/41/11
f 14/46/12 18/45/12 17/44/12
f 14/46/12 12/47/12 18/45/12
f 12/50/13 19/49/13 18/48/13
f 12/50/13 15/51/13 19/49/13
f 15/54/14 16/53/14 19/52/14
f 15/54/14 13/55/14 16/53/14

