# ProBuilder 4.4.0
# https://unity3d.com/unity/features/worldbuilding/probuilder
# 12/29/2020 3:48:42 PM

mtllib ./Door.mtl
o Door

g Door
v 1 3 0.05
v 1 0 0.05
v -1 0 0.05
v -1 3 0.05
v -1 0 -0.05
v -1 3 -0.05
v 1 0 -0.05
v 1 3 -0.05

vt 0 3
vt 0 0
vt -2 0
vt -2 3
vt -0.1 0
vt -0.1 3
vt 2 3
vt 2 0
vt 0.1 3
vt 0.1 0
vt 0 -0.1
vt 2 -0.1
vt -2 -0.1

vn 0 0 1
vn -1 0 0
vn 0 0 -1
vn 1 0 0
vn 0 1 0
vn 0 -1 0

usemtl ProBuilderDefault
f 3/3/1 2/2/1 1/1/1
f 4/4/1 3/3/1 1/1/1
f 5/5/2 3/2/2 4/1/2
f 6/6/2 5/5/2 4/1/2
f 7/2/3 5/8/3 6/7/3
f 8/1/3 7/2/3 6/7/3
f 2/2/4 7/10/4 8/9/4
f 1/1/4 2/2/4 8/9/4
f 4/8/5 1/2/5 8/11/5
f 6/12/5 4/8/5 8/11/5
f 5/13/6 7/11/6 2/2/6
f 3/3/6 5/13/6 2/2/6

